<svg width="193" height="100" viewBox="0 0 193 100" fill="none" xmlns="http://www.w3.org/2000/svg">
<path d="M59.918 73.158C59.918 74.754 59.51 75.99 58.694 76.866C57.89 77.742 56.798 78.18 55.418 78.18C54.566 78.18 53.804 77.988 53.132 77.604C52.472 77.208 51.95 76.638 51.566 75.894C51.182 75.138 50.99 74.226 50.99 73.158C50.99 71.562 51.392 70.332 52.196 69.468C53 68.604 54.092 68.172 55.472 68.172C56.348 68.172 57.116 68.37 57.776 68.766C58.448 69.15 58.97 69.714 59.342 70.458C59.726 71.19 59.918 72.09 59.918 73.158ZM52.628 73.158C52.628 74.298 52.85 75.204 53.294 75.876C53.75 76.536 54.47 76.866 55.454 76.866C56.426 76.866 57.14 76.536 57.596 75.876C58.052 75.204 58.28 74.298 58.28 73.158C58.28 72.018 58.052 71.124 57.596 70.476C57.14 69.828 56.42 69.504 55.436 69.504C54.452 69.504 53.738 69.828 53.294 70.476C52.85 71.124 52.628 72.018 52.628 73.158ZM66.2984 78.18C65.4464 78.18 64.6844 78.006 64.0124 77.658C63.3524 77.31 62.8304 76.77 62.4464 76.038C62.0744 75.306 61.8884 74.37 61.8884 73.23C61.8884 72.042 62.0864 71.076 62.4824 70.332C62.8784 69.588 63.4124 69.042 64.0844 68.694C64.7684 68.346 65.5424 68.172 66.4064 68.172C66.8984 68.172 67.3724 68.226 67.8284 68.334C68.2844 68.43 68.6564 68.55 68.9444 68.694L68.4584 70.008C68.1704 69.9 67.8344 69.798 67.4504 69.702C67.0664 69.606 66.7064 69.558 66.3704 69.558C64.4744 69.558 63.5264 70.776 63.5264 73.212C63.5264 74.376 63.7544 75.27 64.2104 75.894C64.6784 76.506 65.3684 76.812 66.2804 76.812C66.8084 76.812 67.2704 76.758 67.6664 76.65C68.0744 76.542 68.4464 76.41 68.7824 76.254V77.658C68.4584 77.826 68.0984 77.952 67.7024 78.036C67.3184 78.132 66.8504 78.18 66.2984 78.18ZM77.7369 69.684H74.5869V78H73.0209V69.684H69.9069V68.352H77.7369V69.684ZM83.2914 68.19C84.4674 68.19 85.3374 68.448 85.9014 68.964C86.4654 69.48 86.7474 70.302 86.7474 71.43V78H85.5954L85.2894 76.632H85.2174C84.7974 77.16 84.3534 77.55 83.8854 77.802C83.4294 78.054 82.7934 78.18 81.9774 78.18C81.1014 78.18 80.3754 77.952 79.7994 77.496C79.2234 77.028 78.9354 76.302 78.9354 75.318C78.9354 74.358 79.3134 73.62 80.0694 73.104C80.8254 72.576 81.9894 72.288 83.5614 72.24L85.1994 72.186V71.61C85.1994 70.806 85.0254 70.248 84.6774 69.936C84.3294 69.624 83.8374 69.468 83.2014 69.468C82.6974 69.468 82.2174 69.546 81.7614 69.702C81.3054 69.846 80.8794 70.014 80.4834 70.206L79.9974 69.018C80.4174 68.79 80.9154 68.598 81.4914 68.442C82.0674 68.274 82.6674 68.19 83.2914 68.19ZM83.7594 73.338C82.5594 73.386 81.7254 73.578 81.2574 73.914C80.8014 74.25 80.5734 74.724 80.5734 75.336C80.5734 75.876 80.7354 76.272 81.0594 76.524C81.3954 76.776 81.8214 76.902 82.3374 76.902C83.1534 76.902 83.8314 76.68 84.3714 76.236C84.9114 75.78 85.1814 75.084 85.1814 74.148V73.284L83.7594 73.338ZM97.4853 70.782C97.4853 71.382 97.3053 71.85 96.9453 72.186C96.5853 72.522 96.1233 72.75 95.5593 72.87V72.942C96.1593 73.026 96.6813 73.242 97.1253 73.59C97.5693 73.926 97.7913 74.454 97.7913 75.174C97.7913 75.99 97.4853 76.668 96.8733 77.208C96.2733 77.736 95.2773 78 93.8853 78H89.7273V68.352H93.8673C94.5513 68.352 95.1633 68.43 95.7033 68.586C96.2553 68.73 96.6873 68.982 96.9993 69.342C97.3233 69.69 97.4853 70.17 97.4853 70.782ZM95.8833 70.98C95.8833 70.524 95.7153 70.194 95.3793 69.99C95.0553 69.774 94.5213 69.666 93.7773 69.666H91.3113V72.312H93.4893C95.0853 72.312 95.8833 71.868 95.8833 70.98ZM96.1533 75.174C96.1533 74.622 95.9433 74.226 95.5233 73.986C95.1033 73.746 94.4853 73.626 93.6693 73.626H91.3113V76.722H93.7053C94.4973 76.722 95.1033 76.608 95.5233 76.38C95.9433 76.14 96.1533 75.738 96.1533 75.174ZM101.592 74.238C101.592 74.382 101.586 74.598 101.574 74.886C101.562 75.174 101.544 75.462 101.52 75.75C101.508 76.038 101.496 76.266 101.484 76.434L106.65 68.352H108.594V78H107.118V72.312C107.118 72.12 107.118 71.868 107.118 71.556C107.13 71.244 107.142 70.938 107.154 70.638C107.166 70.326 107.178 70.092 107.19 69.936L102.06 78H100.098V68.352H101.592V74.238ZM118.325 69.684H115.175V78H113.609V69.684H110.495V68.352H118.325V69.684ZM124.671 72.312C127.179 72.312 128.433 73.224 128.433 75.048C128.433 75.948 128.127 76.668 127.515 77.208C126.903 77.736 125.931 78 124.599 78H120.225V68.352H121.809V72.312H124.671ZM126.849 75.138C126.849 74.55 126.639 74.154 126.219 73.95C125.811 73.734 125.235 73.626 124.491 73.626H121.809V76.722H124.527C125.199 76.722 125.751 76.602 126.183 76.362C126.627 76.122 126.849 75.714 126.849 75.138ZM138.127 68.172C139.231 68.172 140.107 68.394 140.755 68.838C141.415 69.27 141.745 69.894 141.745 70.71C141.745 71.298 141.583 71.766 141.259 72.114C140.935 72.45 140.491 72.696 139.927 72.852V72.924C140.311 73.032 140.665 73.182 140.989 73.374C141.313 73.566 141.571 73.818 141.763 74.13C141.967 74.442 142.069 74.844 142.069 75.336C142.069 76.14 141.733 76.818 141.061 77.37C140.401 77.91 139.363 78.18 137.947 78.18C137.251 78.18 136.621 78.12 136.057 78C135.493 77.892 135.025 77.742 134.653 77.55V76.128C135.061 76.32 135.541 76.494 136.093 76.65C136.657 76.806 137.269 76.884 137.929 76.884C138.649 76.884 139.255 76.764 139.747 76.524C140.251 76.272 140.503 75.846 140.503 75.246C140.503 74.166 139.585 73.626 137.749 73.626H136.453V72.33H137.497C138.325 72.33 138.985 72.222 139.477 72.006C139.981 71.778 140.233 71.394 140.233 70.854C140.233 70.398 140.041 70.056 139.657 69.828C139.285 69.6 138.745 69.486 138.037 69.486C137.509 69.486 137.041 69.54 136.633 69.648C136.237 69.744 135.799 69.894 135.319 70.098L134.761 68.838C135.769 68.394 136.891 68.172 138.127 68.172ZM148.067 68.19C149.243 68.19 150.113 68.448 150.677 68.964C151.241 69.48 151.523 70.302 151.523 71.43V78H150.371L150.065 76.632H149.993C149.573 77.16 149.129 77.55 148.661 77.802C148.205 78.054 147.569 78.18 146.753 78.18C145.877 78.18 145.151 77.952 144.575 77.496C143.999 77.028 143.711 76.302 143.711 75.318C143.711 74.358 144.089 73.62 144.845 73.104C145.601 72.576 146.765 72.288 148.337 72.24L149.975 72.186V71.61C149.975 70.806 149.801 70.248 149.453 69.936C149.105 69.624 148.613 69.468 147.977 69.468C147.473 69.468 146.993 69.546 146.537 69.702C146.081 69.846 145.655 70.014 145.259 70.206L144.773 69.018C145.193 68.79 145.691 68.598 146.267 68.442C146.843 68.274 147.443 68.19 148.067 68.19ZM148.535 73.338C147.335 73.386 146.501 73.578 146.033 73.914C145.577 74.25 145.349 74.724 145.349 75.336C145.349 75.876 145.511 76.272 145.835 76.524C146.171 76.776 146.597 76.902 147.113 76.902C147.929 76.902 148.607 76.68 149.147 76.236C149.687 75.78 149.957 75.084 149.957 74.148V73.284L148.535 73.338ZM155.097 78H153.261L156.015 73.95C155.643 73.854 155.283 73.704 154.935 73.5C154.587 73.284 154.305 72.99 154.089 72.618C153.873 72.234 153.765 71.76 153.765 71.196C153.765 70.272 154.077 69.57 154.701 69.09C155.325 68.598 156.153 68.352 157.185 68.352H161.505V78H159.921V74.166H157.581L155.097 78ZM155.295 71.214C155.295 71.766 155.499 72.18 155.907 72.456C156.327 72.72 156.909 72.852 157.653 72.852H159.921V69.666H157.347C156.615 69.666 156.087 69.81 155.763 70.098C155.451 70.386 155.295 70.758 155.295 71.214ZM172.315 70.782C172.315 71.382 172.135 71.85 171.775 72.186C171.415 72.522 170.953 72.75 170.389 72.87V72.942C170.989 73.026 171.511 73.242 171.955 73.59C172.399 73.926 172.621 74.454 172.621 75.174C172.621 75.99 172.315 76.668 171.703 77.208C171.103 77.736 170.107 78 168.715 78H164.557V68.352H168.697C169.381 68.352 169.993 68.43 170.533 68.586C171.085 68.73 171.517 68.982 171.829 69.342C172.153 69.69 172.315 70.17 172.315 70.782ZM170.713 70.98C170.713 70.524 170.545 70.194 170.209 69.99C169.885 69.774 169.351 69.666 168.607 69.666H166.141V72.312H168.319C169.915 72.312 170.713 71.868 170.713 70.98ZM170.983 75.174C170.983 74.622 170.773 74.226 170.353 73.986C169.933 73.746 169.315 73.626 168.499 73.626H166.141V76.722H168.535C169.327 76.722 169.933 76.608 170.353 76.38C170.773 76.14 170.983 75.738 170.983 75.174ZM180.634 68.352H182.362L178.24 72.996L182.704 78H180.868L176.512 73.104V78H174.928V68.352H176.512V73.032L180.634 68.352ZM182.944 68.352H184.636L186.724 73.842C186.904 74.322 187.066 74.784 187.21 75.228C187.354 75.66 187.462 76.074 187.534 76.47H187.606C187.678 76.17 187.792 75.78 187.948 75.3C188.104 74.808 188.266 74.316 188.434 73.824L190.396 68.352H192.106L187.948 79.332C187.612 80.244 187.174 80.97 186.634 81.51C186.106 82.05 185.374 82.32 184.438 82.32C184.15 82.32 183.898 82.302 183.682 82.266C183.466 82.242 183.28 82.212 183.124 82.176V80.916C183.256 80.94 183.412 80.964 183.592 80.988C183.784 81.012 183.982 81.024 184.186 81.024C184.738 81.024 185.182 80.868 185.518 80.556C185.866 80.244 186.136 79.83 186.328 79.314L186.832 78.036L182.944 68.352Z" fill="white"/>
<path d="M70.7071 50.7071C71.0976 50.3166 71.0976 49.6834 70.7071 49.2929L64.3431 42.9289C63.9526 42.5384 63.3195 42.5384 62.9289 42.9289C62.5384 43.3195 62.5384 43.9526 62.9289 44.3431L68.5858 50L62.9289 55.6569C62.5384 56.0474 62.5384 56.6805 62.9289 57.0711C63.3195 57.4616 63.9526 57.4616 64.3431 57.0711L70.7071 50.7071ZM30 51H70V49H30V51Z" fill="white"/>
<circle cx="50" cy="50" r="49" stroke="white" stroke-width="2"/>
</svg>
