<svg width="308" height="100" viewBox="0 0 308 100" fill="none" xmlns="http://www.w3.org/2000/svg">
<path d="M53.6434 68.172C54.7474 68.172 55.6234 68.394 56.2714 68.838C56.9314 69.27 57.2614 69.894 57.2614 70.71C57.2614 71.298 57.0994 71.766 56.7754 72.114C56.4514 72.45 56.0074 72.696 55.4434 72.852V72.924C55.8274 73.032 56.1814 73.182 56.5054 73.374C56.8294 73.566 57.0874 73.818 57.2794 74.13C57.4834 74.442 57.5854 74.844 57.5854 75.336C57.5854 76.14 57.2494 76.818 56.5774 77.37C55.9174 77.91 54.8794 78.18 53.4634 78.18C52.7674 78.18 52.1374 78.12 51.5734 78C51.0094 77.892 50.5414 77.742 50.1694 77.55V76.128C50.5774 76.32 51.0574 76.494 51.6094 76.65C52.1734 76.806 52.7854 76.884 53.4454 76.884C54.1654 76.884 54.7714 76.764 55.2634 76.524C55.7674 76.272 56.0194 75.846 56.0194 75.246C56.0194 74.166 55.1014 73.626 53.2654 73.626H51.9694V72.33H53.0134C53.8414 72.33 54.5014 72.222 54.9934 72.006C55.4974 71.778 55.7494 71.394 55.7494 70.854C55.7494 70.398 55.5574 70.056 55.1734 69.828C54.8014 69.6 54.2614 69.486 53.5534 69.486C53.0254 69.486 52.5574 69.54 52.1494 69.648C51.7534 69.744 51.3154 69.894 50.8354 70.098L50.2774 68.838C51.2854 68.394 52.4074 68.172 53.6434 68.172ZM63.5837 68.19C64.7597 68.19 65.6297 68.448 66.1937 68.964C66.7577 69.48 67.0397 70.302 67.0397 71.43V78H65.8877L65.5817 76.632H65.5097C65.0897 77.16 64.6457 77.55 64.1777 77.802C63.7217 78.054 63.0857 78.18 62.2697 78.18C61.3937 78.18 60.6677 77.952 60.0917 77.496C59.5157 77.028 59.2277 76.302 59.2277 75.318C59.2277 74.358 59.6057 73.62 60.3617 73.104C61.1177 72.576 62.2817 72.288 63.8537 72.24L65.4917 72.186V71.61C65.4917 70.806 65.3177 70.248 64.9697 69.936C64.6217 69.624 64.1297 69.468 63.4937 69.468C62.9897 69.468 62.5097 69.546 62.0537 69.702C61.5977 69.846 61.1717 70.014 60.7757 70.206L60.2897 69.018C60.7097 68.79 61.2077 68.598 61.7837 68.442C62.3597 68.274 62.9597 68.19 63.5837 68.19ZM64.0517 73.338C62.8517 73.386 62.0177 73.578 61.5497 73.914C61.0937 74.25 60.8657 74.724 60.8657 75.336C60.8657 75.876 61.0277 76.272 61.3517 76.524C61.6877 76.776 62.1137 76.902 62.6297 76.902C63.4457 76.902 64.1237 76.68 64.6637 76.236C65.2037 75.78 65.4737 75.084 65.4737 74.148V73.284L64.0517 73.338ZM78.1735 68.352V78H76.5895V69.702H71.6035V78H70.0195V68.352H78.1735ZM82.7459 74.238C82.7459 74.382 82.7399 74.598 82.7279 74.886C82.7159 75.174 82.6979 75.462 82.6739 75.75C82.6619 76.038 82.6499 76.266 82.6379 76.434L87.8039 68.352H89.7479V78H88.2719V72.312C88.2719 72.12 88.2719 71.868 88.2719 71.556C88.2839 71.244 88.2959 70.938 88.3079 70.638C88.3199 70.326 88.3319 70.092 88.3439 69.936L83.2139 78H81.2519V68.352H82.7459V74.238ZM96.6883 78.18C95.8363 78.18 95.0743 78.006 94.4023 77.658C93.7423 77.31 93.2203 76.77 92.8363 76.038C92.4643 75.306 92.2783 74.37 92.2783 73.23C92.2783 72.042 92.4763 71.076 92.8723 70.332C93.2683 69.588 93.8023 69.042 94.4743 68.694C95.1583 68.346 95.9323 68.172 96.7963 68.172C97.2883 68.172 97.7623 68.226 98.2183 68.334C98.6743 68.43 99.0463 68.55 99.3343 68.694L98.8483 70.008C98.5603 69.9 98.2243 69.798 97.8403 69.702C97.4563 69.606 97.0963 69.558 96.7603 69.558C94.8643 69.558 93.9163 70.776 93.9163 73.212C93.9163 74.376 94.1443 75.27 94.6003 75.894C95.0683 76.506 95.7583 76.812 96.6703 76.812C97.1983 76.812 97.6603 76.758 98.0563 76.65C98.4643 76.542 98.8363 76.41 99.1723 76.254V77.658C98.8483 77.826 98.4883 77.952 98.0923 78.036C97.7083 78.132 97.2403 78.18 96.6883 78.18ZM105.121 68.19C106.297 68.19 107.167 68.448 107.731 68.964C108.295 69.48 108.577 70.302 108.577 71.43V78H107.425L107.119 76.632H107.047C106.627 77.16 106.183 77.55 105.715 77.802C105.259 78.054 104.623 78.18 103.807 78.18C102.931 78.18 102.205 77.952 101.629 77.496C101.053 77.028 100.765 76.302 100.765 75.318C100.765 74.358 101.143 73.62 101.899 73.104C102.655 72.576 103.819 72.288 105.391 72.24L107.029 72.186V71.61C107.029 70.806 106.855 70.248 106.507 69.936C106.159 69.624 105.667 69.468 105.031 69.468C104.527 69.468 104.047 69.546 103.591 69.702C103.135 69.846 102.709 70.014 102.313 70.206L101.827 69.018C102.247 68.79 102.745 68.598 103.321 68.442C103.897 68.274 104.497 68.19 105.121 68.19ZM105.589 73.338C104.389 73.386 103.555 73.578 103.087 73.914C102.631 74.25 102.403 74.724 102.403 75.336C102.403 75.876 102.565 76.272 102.889 76.524C103.225 76.776 103.651 76.902 104.167 76.902C104.983 76.902 105.661 76.68 106.201 76.236C106.741 75.78 107.011 75.084 107.011 74.148V73.284L105.589 73.338ZM118.217 69.684H115.067V78H113.501V69.684H110.387V68.352H118.217V69.684ZM124.563 72.312C127.071 72.312 128.325 73.224 128.325 75.048C128.325 75.948 128.019 76.668 127.407 77.208C126.795 77.736 125.823 78 124.491 78H120.117V68.352H121.701V72.312H124.563ZM126.741 75.138C126.741 74.55 126.531 74.154 126.111 73.95C125.703 73.734 125.127 73.626 124.383 73.626H121.701V76.722H124.419C125.091 76.722 125.643 76.602 126.075 76.362C126.519 76.122 126.741 75.714 126.741 75.138ZM134.675 78.18C133.823 78.18 133.061 78.006 132.389 77.658C131.729 77.31 131.207 76.77 130.823 76.038C130.451 75.306 130.265 74.37 130.265 73.23C130.265 72.042 130.463 71.076 130.859 70.332C131.255 69.588 131.789 69.042 132.461 68.694C133.145 68.346 133.919 68.172 134.783 68.172C135.275 68.172 135.749 68.226 136.205 68.334C136.661 68.43 137.033 68.55 137.321 68.694L136.835 70.008C136.547 69.9 136.211 69.798 135.827 69.702C135.443 69.606 135.083 69.558 134.747 69.558C132.851 69.558 131.903 70.776 131.903 73.212C131.903 74.376 132.131 75.27 132.587 75.894C133.055 76.506 133.745 76.812 134.657 76.812C135.185 76.812 135.647 76.758 136.043 76.65C136.451 76.542 136.823 76.41 137.159 76.254V77.658C136.835 77.826 136.475 77.952 136.079 78.036C135.695 78.132 135.227 78.18 134.675 78.18ZM140.047 78H138.211L140.965 73.95C140.593 73.854 140.233 73.704 139.885 73.5C139.537 73.284 139.255 72.99 139.039 72.618C138.823 72.234 138.715 71.76 138.715 71.196C138.715 70.272 139.027 69.57 139.651 69.09C140.275 68.598 141.103 68.352 142.135 68.352H146.455V78H144.871V74.166H142.531L140.047 78ZM140.245 71.214C140.245 71.766 140.449 72.18 140.857 72.456C141.277 72.72 141.859 72.852 142.603 72.852H144.871V69.666H142.297C141.565 69.666 141.037 69.81 140.713 70.098C140.401 70.386 140.245 70.758 140.245 71.214ZM155.768 68.352V72.366H161.006V68.352H162.59V78H161.006V73.698H155.768V78H154.184V68.352H155.768ZM169.299 68.19C170.475 68.19 171.345 68.448 171.909 68.964C172.473 69.48 172.755 70.302 172.755 71.43V78H171.603L171.297 76.632H171.225C170.805 77.16 170.361 77.55 169.893 77.802C169.437 78.054 168.801 78.18 167.985 78.18C167.109 78.18 166.383 77.952 165.807 77.496C165.231 77.028 164.943 76.302 164.943 75.318C164.943 74.358 165.321 73.62 166.077 73.104C166.833 72.576 167.997 72.288 169.569 72.24L171.207 72.186V71.61C171.207 70.806 171.033 70.248 170.685 69.936C170.337 69.624 169.845 69.468 169.209 69.468C168.705 69.468 168.225 69.546 167.769 69.702C167.313 69.846 166.887 70.014 166.491 70.206L166.005 69.018C166.425 68.79 166.923 68.598 167.499 68.442C168.075 68.274 168.675 68.19 169.299 68.19ZM169.767 73.338C168.567 73.386 167.733 73.578 167.265 73.914C166.809 74.25 166.581 74.724 166.581 75.336C166.581 75.876 166.743 76.272 167.067 76.524C167.403 76.776 167.829 76.902 168.345 76.902C169.161 76.902 169.839 76.68 170.379 76.236C170.919 75.78 171.189 75.084 171.189 74.148V73.284L169.767 73.338ZM186.116 68.352H187.844L183.722 72.996L188.186 78H186.35L181.994 73.104V78H180.41V68.352H181.994V73.032L186.116 68.352ZM197.974 73.158C197.974 74.754 197.566 75.99 196.75 76.866C195.946 77.742 194.854 78.18 193.474 78.18C192.622 78.18 191.86 77.988 191.188 77.604C190.528 77.208 190.006 76.638 189.622 75.894C189.238 75.138 189.046 74.226 189.046 73.158C189.046 71.562 189.448 70.332 190.252 69.468C191.056 68.604 192.148 68.172 193.528 68.172C194.404 68.172 195.172 68.37 195.832 68.766C196.504 69.15 197.026 69.714 197.398 70.458C197.782 71.19 197.974 72.09 197.974 73.158ZM190.684 73.158C190.684 74.298 190.906 75.204 191.35 75.876C191.806 76.536 192.526 76.866 193.51 76.866C194.482 76.866 195.196 76.536 195.652 75.876C196.108 75.204 196.336 74.298 196.336 73.158C196.336 72.018 196.108 71.124 195.652 70.476C195.196 69.828 194.476 69.504 193.492 69.504C192.508 69.504 191.794 69.828 191.35 70.476C190.906 71.124 190.684 72.018 190.684 73.158ZM202.068 68.352V72.366H207.306V68.352H208.89V78H207.306V73.698H202.068V78H200.484V68.352H202.068ZM215.815 78.18C214.963 78.18 214.201 78.006 213.529 77.658C212.869 77.31 212.347 76.77 211.963 76.038C211.591 75.306 211.405 74.37 211.405 73.23C211.405 72.042 211.603 71.076 211.999 70.332C212.395 69.588 212.929 69.042 213.601 68.694C214.285 68.346 215.059 68.172 215.923 68.172C216.415 68.172 216.889 68.226 217.345 68.334C217.801 68.43 218.173 68.55 218.461 68.694L217.975 70.008C217.687 69.9 217.351 69.798 216.967 69.702C216.583 69.606 216.223 69.558 215.887 69.558C213.991 69.558 213.043 70.776 213.043 73.212C213.043 74.376 213.271 75.27 213.727 75.894C214.195 76.506 214.885 76.812 215.797 76.812C216.325 76.812 216.787 76.758 217.183 76.65C217.591 76.542 217.963 76.41 218.299 76.254V77.658C217.975 77.826 217.615 77.952 217.219 78.036C216.835 78.132 216.367 78.18 215.815 78.18ZM219.082 68.352H220.774L222.862 73.842C223.042 74.322 223.204 74.784 223.348 75.228C223.492 75.66 223.6 76.074 223.672 76.47H223.744C223.816 76.17 223.93 75.78 224.086 75.3C224.242 74.808 224.404 74.316 224.572 73.824L226.534 68.352H228.244L224.086 79.332C223.75 80.244 223.312 80.97 222.772 81.51C222.244 82.05 221.512 82.32 220.576 82.32C220.288 82.32 220.036 82.302 219.82 82.266C219.604 82.242 219.418 82.212 219.262 82.176V80.916C219.394 80.94 219.55 80.964 219.73 80.988C219.922 81.012 220.12 81.024 220.324 81.024C220.876 81.024 221.32 80.868 221.656 80.556C222.004 80.244 222.274 79.83 222.466 79.314L222.97 78.036L219.082 68.352ZM236.762 78H235.16V69.666H232.316C232.16 71.694 231.944 73.332 231.668 74.58C231.392 75.816 231.026 76.716 230.57 77.28C230.114 77.844 229.538 78.126 228.842 78.126C228.686 78.126 228.53 78.114 228.374 78.09C228.23 78.078 228.11 78.048 228.014 78V76.812C228.086 76.836 228.164 76.854 228.248 76.866C228.332 76.878 228.416 76.884 228.5 76.884C229.148 76.884 229.664 76.194 230.048 74.814C230.444 73.434 230.744 71.28 230.948 68.352H236.762V78ZM244.27 72.312C246.778 72.312 248.032 73.224 248.032 75.048C248.032 75.948 247.726 76.668 247.114 77.208C246.502 77.736 245.53 78 244.198 78H239.824V68.352H241.408V72.312H244.27ZM246.448 75.138C246.448 74.55 246.238 74.154 245.818 73.95C245.41 73.734 244.834 73.626 244.09 73.626H241.408V76.722H244.126C244.798 76.722 245.35 76.602 245.782 76.362C246.226 76.122 246.448 75.714 246.448 75.138ZM256.275 69.684H253.125V78H251.559V69.684H248.445V68.352H256.275V69.684ZM261.83 68.19C263.006 68.19 263.876 68.448 264.44 68.964C265.004 69.48 265.286 70.302 265.286 71.43V78H264.134L263.828 76.632H263.756C263.336 77.16 262.892 77.55 262.424 77.802C261.968 78.054 261.332 78.18 260.516 78.18C259.64 78.18 258.914 77.952 258.338 77.496C257.762 77.028 257.474 76.302 257.474 75.318C257.474 74.358 257.852 73.62 258.608 73.104C259.364 72.576 260.528 72.288 262.1 72.24L263.738 72.186V71.61C263.738 70.806 263.564 70.248 263.216 69.936C262.868 69.624 262.376 69.468 261.74 69.468C261.236 69.468 260.756 69.546 260.3 69.702C259.844 69.846 259.418 70.014 259.022 70.206L258.536 69.018C258.956 68.79 259.454 68.598 260.03 68.442C260.606 68.274 261.206 68.19 261.83 68.19ZM262.298 73.338C261.098 73.386 260.264 73.578 259.796 73.914C259.34 74.25 259.112 74.724 259.112 75.336C259.112 75.876 259.274 76.272 259.598 76.524C259.934 76.776 260.36 76.902 260.876 76.902C261.692 76.902 262.37 76.68 262.91 76.236C263.45 75.78 263.72 75.084 263.72 74.148V73.284L262.298 73.338ZM277.788 81.348H276.24V78H268.266V68.352H269.85V76.668H274.836V68.352H276.42V76.686H277.788V81.348ZM281.133 74.238C281.133 74.382 281.127 74.598 281.115 74.886C281.103 75.174 281.085 75.462 281.061 75.75C281.049 76.038 281.037 76.266 281.025 76.434L286.191 68.352H288.135V78H286.659V72.312C286.659 72.12 286.659 71.868 286.659 71.556C286.671 71.244 286.683 70.938 286.695 70.638C286.707 70.326 286.719 70.092 286.731 69.936L281.601 78H279.639V68.352H281.133V74.238ZM303.733 73.158C303.733 74.754 303.349 75.99 302.581 76.866C301.813 77.742 300.775 78.18 299.467 78.18C298.243 78.18 297.253 77.796 296.497 77.028C295.753 76.26 295.333 75.15 295.237 73.698H292.789V78H291.205V68.352H292.789V72.366H295.255C295.387 71.01 295.825 69.972 296.569 69.252C297.313 68.532 298.291 68.172 299.503 68.172C300.331 68.172 301.063 68.37 301.699 68.766C302.335 69.15 302.833 69.714 303.193 70.458C303.553 71.19 303.733 72.09 303.733 73.158ZM296.857 73.158C296.857 74.37 297.067 75.294 297.487 75.93C297.907 76.554 298.573 76.866 299.485 76.866C300.409 76.866 301.075 76.554 301.483 75.93C301.891 75.294 302.095 74.37 302.095 73.158C302.095 71.946 301.885 71.034 301.465 70.422C301.057 69.81 300.397 69.504 299.485 69.504C298.573 69.504 297.907 69.81 297.487 70.422C297.067 71.034 296.857 71.946 296.857 73.158Z" fill="white"/>
<path d="M70.7434 50.7071C71.134 50.3166 71.134 49.6834 70.7434 49.2929L64.3795 42.9289C63.989 42.5384 63.3558 42.5384 62.9653 42.9289C62.5747 43.3195 62.5747 43.9526 62.9653 44.3431L68.6221 50L62.9653 55.6569C62.5747 56.0474 62.5747 56.6805 62.9653 57.0711C63.3558 57.4616 63.989 57.4616 64.3795 57.0711L70.7434 50.7071ZM30.0155 51H70.0363V49H30.0155V51Z" fill="white"/>
<path d="M99.0521 50C99.0521 77.0615 77.1029 99 50.026 99C22.9492 99 1 77.0615 1 50C1 22.9385 22.9492 1 50.026 1C77.1029 1 99.0521 22.9385 99.0521 50Z" stroke="white" stroke-width="2"/>
</svg>
